<?xml version="1.0" encoding="iso-8859-1"?>
<!-- Generator: Adobe Illustrator 19.0.0, SVG Export Plug-In . SVG Version: 6.00 Build 0)  -->
<svg version="1.1" id="Capa_1" xmlns="http://www.w3.org/2000/svg" xmlns:xlink="http://www.w3.org/1999/xlink" x="0px" y="0px"
	 viewBox="0 0 512 512" style="enable-background:new 0 0 512 512;" xml:space="preserve">
<g>
	<g>
		<path d="M401,0H111C90.322,0,73.5,16.822,73.5,37.5v437c0,20.678,16.822,37.5,37.5,37.5h290c20.678,0,37.5-16.822,37.5-37.5v-437
			C438.5,16.822,421.678,0,401,0z M423.5,474.5c0,12.407-10.094,22.5-22.5,22.5H111c-12.407,0-22.5-10.093-22.5-22.5v-437
			C88.5,25.093,98.593,15,111,15h290c12.406,0,22.5,10.093,22.5,22.5V474.5z"/>
	</g>
</g>
<g>
	<g>
		<path d="M401,60H111c-4.142,0-7.5,3.358-7.5,7.5v347c0,4.142,3.358,7.5,7.5,7.5h30c4.142,0,7.5-3.358,7.5-7.5
			c0-4.142-3.358-7.5-7.5-7.5h-22.5V75h275v332H171c-4.142,0-7.5,3.358-7.5,7.5c0,4.142,3.358,7.5,7.5,7.5h230
			c4.143,0,7.5-3.358,7.5-7.5v-347C408.5,63.358,405.143,60,401,60z"/>
	</g>
</g>
<g>
	<g>
		<path d="M286,30h-60c-4.142,0-7.5,3.358-7.5,7.5c0,4.142,3.358,7.5,7.5,7.5h60c4.143,0,7.5-3.358,7.5-7.5
			C293.5,33.358,290.143,30,286,30z"/>
	</g>
</g>
<g>
	<g>
		<path d="M276,437h-40c-12.407,0-22.5,10.093-22.5,22.5c0,12.407,10.093,22.5,22.5,22.5h40c12.406,0,22.5-10.093,22.5-22.5
			C298.5,447.093,288.406,437,276,437z M276,467h-40c-4.136,0-7.5-3.364-7.5-7.5s3.364-7.5,7.5-7.5h40c4.136,0,7.5,3.364,7.5,7.5
			S280.136,467,276,467z"/>
	</g>
</g>
<g>
</g>
<g>
</g>
<g>
</g>
<g>
</g>
<g>
</g>
<g>
</g>
<g>
</g>
<g>
</g>
<g>
</g>
<g>
</g>
<g>
</g>
<g>
</g>
<g>
</g>
<g>
</g>
<g>
</g>
</svg>
