<?xml version="1.0" encoding="iso-8859-1"?>
<!-- Generator: Adobe Illustrator 19.0.0, SVG Export Plug-In . SVG Version: 6.00 Build 0)  -->
<svg version="1.1" id="Capa_1" xmlns="http://www.w3.org/2000/svg" xmlns:xlink="http://www.w3.org/1999/xlink" x="0px" y="0px"
	 viewBox="0 0 512 512" style="enable-background:new 0 0 512 512;" xml:space="preserve">
<g>
	<g>
		<path d="M501.961,199.449h-169.02v-2.861c0-16.508-13.43-29.937-29.936-29.937h-94.008c-16.506,0-29.936,13.429-29.936,29.937
			v2.861H10.039C4.496,199.449,0,203.945,0,209.488v93.023c0,5.544,4.496,10.039,10.039,10.039h169.02v2.861
			c0,16.508,13.429,29.937,29.936,29.937h94.008c16.506,0,29.936-13.429,29.936-29.937v-2.861h169.021
			c5.544,0,10.039-4.496,10.039-10.039v-93.023C512,203.944,507.504,199.449,501.961,199.449z M179.059,292.472H20.078v-72.945
			h158.981V292.472z M199.138,196.588c0-5.436,4.422-9.859,9.858-9.859h94.008c5.435,0,9.857,4.422,9.857,9.859v2.861H199.138
			V196.588z M312.862,315.412c0,5.436-4.422,9.859-9.857,9.859h-94.008c-5.435,0-9.857-4.422-9.857-9.859v-2.861h113.723V315.412z
			 M312.862,245.961H256c-5.544,0-10.039,4.496-10.039,10.039c0,5.544,4.496,10.039,10.039,10.039h56.862v26.433H199.138v-72.945
			h113.724V245.961z M348.692,292.473h-15.752v-72.945h15.752V292.473z M491.922,292.472H368.771v-72.945h123.151V292.472z"/>
	</g>
</g>
<g>
	<g>
		<path d="M133.86,245.964c-12.919,0-12.941,20.078,0,20.078C146.779,266.042,146.8,245.964,133.86,245.964z"/>
	</g>
</g>
<g>
	<g>
		<path d="M66.259,245.964c-12.919,0-12.941,20.078,0,20.078C79.178,266.042,79.199,245.964,66.259,245.964z"/>
	</g>
</g>
<g>
	<g>
		<path d="M478.135,266.039c-12.919,0-12.941,20.078,0,20.078C491.054,286.118,491.075,266.039,478.135,266.039z"/>
	</g>
</g>
<g>
	<g>
		<path d="M448.519,266.039h-47.184c-5.544,0-10.039,4.496-10.039,10.039c0,5.544,4.495,10.039,10.039,10.039h47.184
			c5.544,0,10.039-4.496,10.039-10.039C458.558,270.535,454.063,266.039,448.519,266.039z"/>
	</g>
</g>
<g>
</g>
<g>
</g>
<g>
</g>
<g>
</g>
<g>
</g>
<g>
</g>
<g>
</g>
<g>
</g>
<g>
</g>
<g>
</g>
<g>
</g>
<g>
</g>
<g>
</g>
<g>
</g>
<g>
</g>
</svg>
