<?xml version="1.0" encoding="iso-8859-1"?>
<!-- Generator: Adobe Illustrator 19.0.0, SVG Export Plug-In . SVG Version: 6.00 Build 0)  -->
<svg version="1.1" id="Capa_1" xmlns="http://www.w3.org/2000/svg" xmlns:xlink="http://www.w3.org/1999/xlink" x="0px" y="0px"
	 viewBox="0 0 480 480" style="enable-background:new 0 0 480 480;" xml:space="preserve">
<g>
	<g>
		<path d="M470.272,195.032C468.755,193.116,466.444,192,464,192h-48V48c-0.035-1.44-0.47-2.841-1.256-4.048l0.112-0.072l-24-40
			c-2.595-3.786-7.769-4.752-11.555-2.157c-0.846,0.58-1.577,1.311-2.157,2.157l-24,40l0.112,0.072
			C352.471,45.159,352.036,46.56,352,48v144h-16V16c0-8.837-7.163-16-16-16H192c-8.837,0-16,7.163-16,16v176h-16v-64
			c0-4.418-3.582-8-8-8V64c0.001-4.418-3.581-8.001-7.999-8.001c-1.581,0-3.126,0.468-4.441,1.345l-48,32
			C89.336,90.828,88,93.326,88,96v24c-4.418,0-8,3.582-8,8v64H16c-4.418-0.003-8.002,3.577-8.005,7.995
			c0,0.618,0.071,1.235,0.213,1.837l59.648,253.496C71.218,469.81,84.142,480.045,99.008,480h281.984
			c14.866,0.045,27.791-10.19,31.152-24.672l59.648-253.496C472.351,199.452,471.791,196.947,470.272,195.032z M384,23.552
			L393.872,40h-19.744L384,23.552z M368,56h32v136h-32V56z M192,16h128v176h-40v-56h8v-16h-8v-8h24V96h-24v-8h24V72h-24v-8h16V48
			h-16v-8h-16v8h-16v16h16v8h-24v16h24v8h-24v16h24v8h-8v16h8v56h-40V64h-16v128h-16V16z M104,100.28l32-21.328V120h-32V100.28z
			 M96,136h48v56H96V136z M396.56,451.664c-1.676,7.24-8.136,12.359-15.568,12.336H99.008c-7.432,0.023-13.892-5.096-15.568-12.336
			L75.048,416h329.904L396.56,451.664z M408.72,400H71.28L33.6,240h412.8L408.72,400z M450.136,224H29.864l-3.76-16h427.792
			L450.136,224z"/>
	</g>
</g>
<g>
	<g>
		<path d="M303.16,316.469c-0.68-1.362-1.734-2.501-3.039-3.285v-0.04l-40-24c-2.002-1.204-4.431-1.473-6.648-0.736L232,295.568
			l-21.472-7.16c-2.216-0.744-4.648-0.475-6.648,0.736l-40,24c-3.788,2.274-5.015,7.189-2.741,10.977
			c0.784,1.305,1.923,2.359,3.285,3.039l31.792,15.896c22.541,11.201,49.027,11.201,71.568,0l31.792-15.856
			C303.529,325.226,305.133,320.422,303.16,316.469z M260.624,328.744c-18.031,8.96-39.217,8.96-57.248,0l-18.768-9.384
			l24.352-14.608l20.512,6.84c1.641,0.547,3.415,0.547,5.056,0l20.512-6.84l24.352,14.608L260.624,328.744z"/>
	</g>
</g>
<g>
	<g>
		<rect x="336" y="248" width="16" height="16"/>
	</g>
</g>
<g>
	<g>
		<rect x="320" y="264" width="16" height="16"/>
	</g>
</g>
<g>
	<g>
		<rect x="352" y="264" width="16" height="16"/>
	</g>
</g>
<g>
	<g>
		<rect x="336" y="280" width="16" height="16"/>
	</g>
</g>
<g>
	<g>
		<rect x="112" y="336" width="16" height="16"/>
	</g>
</g>
<g>
	<g>
		<rect x="96" y="352" width="16" height="16"/>
	</g>
</g>
<g>
	<g>
		<rect x="128" y="352" width="16" height="16"/>
	</g>
</g>
<g>
	<g>
		<rect x="112" y="368" width="16" height="16"/>
	</g>
</g>
<g>
	<g>
		<rect x="392" y="296" width="16" height="16"/>
	</g>
</g>
<g>
	<g>
		<rect x="80" y="288" width="16" height="16"/>
	</g>
</g>
<g>
	<g>
		<rect x="208" y="32" width="16" height="16"/>
	</g>
</g>
<g>
</g>
<g>
</g>
<g>
</g>
<g>
</g>
<g>
</g>
<g>
</g>
<g>
</g>
<g>
</g>
<g>
</g>
<g>
</g>
<g>
</g>
<g>
</g>
<g>
</g>
<g>
</g>
<g>
</g>
</svg>
