<?xml version="1.0" encoding="iso-8859-1"?>
<!-- Generator: Adobe Illustrator 19.0.0, SVG Export Plug-In . SVG Version: 6.00 Build 0)  -->
<svg version="1.1" id="Layer_1" xmlns="http://www.w3.org/2000/svg" xmlns:xlink="http://www.w3.org/1999/xlink" x="0px" y="0px"
	 viewBox="0 0 512 512" style="enable-background:new 0 0 512 512;" xml:space="preserve">
<g>
	<g>
		<path d="M490.782,267.5c-4.143,0-7.5,3.357-7.5,7.5v203.556c0,10.17-8.274,18.444-18.444,18.444H270.349l142.846-153.216
			c2.605-2.794,2.694-7.099,0.207-9.997l-45.381-52.903l62.693-21.22c3.191-1.081,5.271-4.156,5.084-7.521L426.208,79.5h38.632
			c10.168,0,18.44,8.276,18.44,18.45v141.77c0,4.143,3.357,7.5,7.5,7.5s7.5-3.357,7.5-7.5V97.95c0-18.444-15.001-33.45-33.44-33.45
			h-46.56h-36.82V24.45c0-2.776-1.618-5.413-4.088-6.675C375.951,17.05,341.589,0,255.478,0C169.314,0,135.92,17.093,134.541,17.82
			c-2.424,1.277-4.001,3.888-4.001,6.63V64.5H93.72H47.16c-18.439,0-33.44,15.006-33.44,33.45v285.8c0,4.143,3.357,7.5,7.5,7.5
			c4.143,0,7.5-3.357,7.5-7.5V97.95c0-10.174,8.272-18.45,18.44-18.45h38.632l-9.59,172.644c-0.188,3.364,1.893,6.439,5.084,7.521
			l62.692,21.22l-45.381,52.903c-2.48,2.892-2.399,7.183,0.189,9.979L240.676,497H47.162c-10.17,0-18.444-8.274-18.444-18.444V416
			c0-4.143-3.357-7.5-7.5-7.5s-7.5,3.357-7.5,7.5v62.556c0,18.441,15.003,33.444,33.444,33.444h417.676
			c18.441,0,33.444-15.003,33.444-33.444V275C498.282,270.857,494.925,267.5,490.782,267.5z M380.514,79.5h30.673l9.319,167.783
			l-67.811,22.952c-2.36,0.799-4.17,2.718-4.828,5.121c-0.659,2.402-0.082,4.976,1.54,6.866l48.243,56.239L270.909,474.403
			l72.549-261.398l25.607,7.837c6.034,1.849,12.674,0.711,17.751-3.046c5.149-3.81,8.104-9.669,8.104-16.076v-86.81
			c0-6.412-2.955-12.275-8.106-16.087c-2.376-1.758-5.145-2.992-8.044-3.561c-0.293-0.058-0.588-0.109-0.884-0.153
			c-0.145-0.022-0.29-0.043-0.435-0.062c-0.317-0.04-0.636-0.071-0.955-0.095c-0.088-0.007-0.176-0.021-0.264-0.026L380.514,79.5z
			 M367.948,111.811l5.506-1.688c1.53-0.467,3.151-0.193,4.438,0.76c1.288,0.953,2.027,2.422,2.027,4.028v86.81
			c0,1.602-0.738,3.065-2.025,4.018c-1.285,0.954-2.903,1.233-4.44,0.761l-84.792-25.957c0.085-0.802,0.138-1.606,0.138-2.413
			v-42.087l79.112-24.224C367.924,111.815,367.936,111.814,367.948,111.811z M307.301,114.69l57.011-32.911l-4.688,16.89
			L307.301,114.69z M366.46,63.219l-86.42,49.888V58.633l86.42-24.284L366.46,63.219L366.46,63.219z M255.478,15
			c44.231,0,74.174,4.671,92.405,8.987l-77.372,21.742c-3.235,0.909-5.471,3.86-5.471,7.221V64.5h-18.08V52.95
			c0-3.36-2.235-6.312-5.471-7.221l-77.724-21.841C181.618,19.605,211.121,15,255.478,15z M239.174,181.939
			c-0.001-0.002-0.002-0.003-0.003-0.005c-0.644-1.172-0.971-2.452-0.971-3.805v-42.49c0-4.292,3.59-7.88,7.88-7.88h19.84
			c4.292,0,7.88,3.591,7.88,7.88v42.49c0,1.353-0.327,2.634-0.964,3.792c-1.394,2.521-4.044,4.088-6.916,4.088h-19.84
			C243.21,186.01,240.561,184.445,239.174,181.939z M246.96,112.76V79.5h18.08v33.26H246.96z M145.54,34.348l86.42,24.284v54.474
			l-86.42-49.888V34.348z M204.699,114.689l-52.401-16.044l-4.645-16.886L204.699,114.689z M138.545,110.12l84.656,25.921v42.088
			c0,0.807,0.053,1.611,0.138,2.411l-84.793,25.958c-1.535,0.473-3.153,0.192-4.44-0.761c-1.287-0.952-2.025-2.416-2.025-4.018
			v-86.81c0-1.606,0.739-3.075,2.027-4.028C135.395,109.929,137.009,109.651,138.545,110.12z M200.48,273.79
			c-1.1-3.994-5.23-6.34-9.221-5.242c-3.994,1.099-6.341,5.228-5.242,9.221l54.073,196.522L114.335,338.479l48.258-56.257
			c1.622-1.891,2.199-4.464,1.54-6.866c-0.658-2.403-2.468-4.322-4.828-5.121l-67.81-22.952L100.814,79.5h30.66l4.246,15.436
			c-3.75,0.248-7.388,1.561-10.534,3.888c-5.151,3.812-8.106,9.675-8.106,16.087v86.81c0,6.407,2.954,12.267,8.104,16.076
			c3.509,2.596,7.628,3.938,11.836,3.938c1.97,0,3.961-0.295,5.916-0.893l25.29-7.742l9.423,34.25
			c0.916,3.328,3.935,5.513,7.228,5.513c0.658,0,1.328-0.088,1.993-0.271c3.994-1.099,6.341-5.228,5.242-9.221l-9.537-34.664
			l47.262-14.468c4.242,4.27,10.062,6.77,16.243,6.77h19.84c6.178,0,11.996-2.498,16.24-6.771l46.95,14.372l-73.599,265.182
			L200.48,273.79z"/>
	</g>
</g>
<g>
</g>
<g>
</g>
<g>
</g>
<g>
</g>
<g>
</g>
<g>
</g>
<g>
</g>
<g>
</g>
<g>
</g>
<g>
</g>
<g>
</g>
<g>
</g>
<g>
</g>
<g>
</g>
<g>
</g>
</svg>
