<svg width="10" height="14" viewBox="0 0 10 14" fill="none" xmlns="http://www.w3.org/2000/svg">
<path d="M9.10841 10.3477C9.10841 10.9717 8.95841 11.5537 8.6584 12.0937C8.3584 12.6217 7.9024 13.0477 7.2904 13.3717C6.6784 13.6957 5.9284 13.8577 5.0404 13.8577C4.1764 13.8577 3.4024 13.7077 2.7184 13.4077C2.0344 13.0957 1.4884 12.6637 1.0804 12.1117C0.672404 11.5597 0.438404 10.9237 0.378404 10.2037H2.5744C2.6344 10.7557 2.8684 11.2297 3.2764 11.6257C3.6964 12.0217 4.2544 12.2197 4.9504 12.2197C5.5744 12.2197 6.0544 12.0517 6.3904 11.7157C6.7384 11.3797 6.9124 10.9477 6.9124 10.4197C6.9124 9.96372 6.7864 9.59172 6.5344 9.30372C6.2824 9.00372 5.9704 8.76972 5.5984 8.60172C5.2264 8.43372 4.7164 8.24172 4.0684 8.02572C3.2764 7.77372 2.6284 7.52172 2.1244 7.26972C1.6324 7.01772 1.2124 6.65172 0.864404 6.17172C0.516404 5.69172 0.342404 5.06172 0.342404 4.28172C0.342404 3.59772 0.510404 2.99772 0.846404 2.48172C1.1824 1.96572 1.6624 1.56972 2.2864 1.29372C2.9104 1.00572 3.6304 0.861719 4.4464 0.861719C5.7424 0.861719 6.7684 1.17372 7.5244 1.79772C8.2924 2.42172 8.7304 3.23772 8.8384 4.24572H6.6244C6.5404 3.76572 6.3124 3.35772 5.9404 3.02172C5.5804 2.67372 5.0824 2.49972 4.4464 2.49972C3.8704 2.49972 3.4084 2.64972 3.0604 2.94972C2.7124 3.23772 2.5384 3.65772 2.5384 4.20972C2.5384 4.64172 2.6584 5.00172 2.8984 5.28972C3.1384 5.56572 3.4384 5.78772 3.7984 5.95572C4.1704 6.11172 4.6744 6.29772 5.3104 6.51372C6.1144 6.76572 6.7684 7.02372 7.2724 7.28772C7.7884 7.53972 8.2204 7.91172 8.5684 8.40372C8.92841 8.89572 9.10841 9.54372 9.10841 10.3477Z" fill="#29A867"/>
</svg>
